<svg width="785" height="261" viewBox="0 0 785 261" fill="none" xmlns="http://www.w3.org/2000/svg">
<g clip-path="url(#clip0)">
<path d="M101.787 155.874C110.237 158.844 119.309 159.588 128.13 158.035C136.951 156.481 145.224 152.682 152.15 147.003C169.79 132.196 175.321 107.811 179.82 85.2261L193.13 18.4209L165.264 37.6082C145.223 51.4067 124.732 65.6485 110.858 85.6346C96.9828 105.621 90.9296 132.905 102.074 154.532" fill="#F39C12"/>
<path d="M106.09 241.405C102.582 215.852 98.9738 189.969 101.44 164.143C103.625 141.205 110.623 118.806 124.87 100.433C132.432 90.7006 141.634 82.362 152.062 75.7919C154.78 74.0764 157.283 78.3842 154.576 80.0931C136.533 91.4956 122.577 108.334 114.72 128.179C106.043 150.248 104.65 174.306 106.145 197.749C107.048 211.926 108.968 226.011 110.896 240.078C111.048 240.714 110.953 241.384 110.63 241.953C110.307 242.522 109.78 242.947 109.155 243.142C108.518 243.314 107.839 243.227 107.266 242.901C106.692 242.575 106.27 242.037 106.091 241.402L106.09 241.405Z" fill="#3F3D56"/>
<path d="M131.335 200.403C134.959 205.912 139.94 210.396 145.799 213.421C151.658 216.446 158.198 217.91 164.788 217.674C181.726 216.87 195.842 205.053 208.548 193.83L246.137 160.642L221.26 159.451C203.37 158.595 185.018 157.791 167.978 163.314C150.938 168.837 135.223 182.109 132.107 199.747" fill="#F39C12"/>
<path d="M96.1756 256.093C113.061 226.216 132.645 193.011 167.642 182.398C177.372 179.457 187.575 178.404 197.7 179.294C200.892 179.57 200.095 184.489 196.91 184.215C179.936 182.806 162.996 187.288 148.94 196.906C135.414 206.113 124.882 218.913 115.969 232.485C110.509 240.8 105.618 249.467 100.727 258.123C99.1647 260.889 94.5946 258.892 96.1756 256.093Z" fill="#3F3D56"/>
<path d="M262.411 214.746C266.058 216.028 269.974 216.349 273.781 215.678C277.588 215.008 281.159 213.368 284.148 210.917C291.761 204.526 294.149 194.002 296.09 184.254L301.835 155.421L289.808 163.702C281.158 169.658 272.315 175.804 266.326 184.43C260.338 193.056 257.725 204.832 262.535 214.167" fill="#F39C12"/>
<path d="M264.268 251.661C262.755 240.632 261.197 229.461 262.261 218.314C263.205 208.415 266.225 198.747 272.374 190.817C275.638 186.617 279.609 183.018 284.11 180.182C285.283 179.442 286.363 181.301 285.195 182.039C277.408 186.96 271.384 194.227 267.993 202.793C264.248 212.317 263.647 222.701 264.292 232.819C264.682 238.938 265.51 245.017 266.343 251.088C266.408 251.363 266.367 251.652 266.228 251.897C266.088 252.143 265.861 252.326 265.591 252.411C265.316 252.485 265.023 252.447 264.776 252.307C264.528 252.166 264.346 251.933 264.269 251.659L264.268 251.661Z" fill="#3F3D56"/>
<path d="M275.164 233.965C276.728 236.342 278.878 238.277 281.407 239.583C283.936 240.888 286.758 241.521 289.602 241.419C296.913 241.072 303.005 235.972 308.489 231.128L324.712 216.804L313.976 216.29C306.254 215.92 298.333 215.573 290.979 217.957C283.625 220.341 276.842 226.069 275.497 233.682" fill="#F39C12"/>
<path d="M259.989 258.001C267.277 245.106 275.73 230.774 290.834 226.194C295.034 224.924 299.437 224.47 303.807 224.854C305.185 224.973 304.841 227.096 303.466 226.978C296.14 226.37 288.829 228.304 282.762 232.455C276.924 236.429 272.379 241.953 268.532 247.811C266.175 251.4 264.065 255.141 261.954 258.876C261.279 260.07 259.307 259.208 259.989 258.001Z" fill="#3F3D56"/>
<path d="M701.589 222.746C667.921 232.412 667.522 184.832 662.165 163.421C681.195 176.379 713.281 194.853 701.465 222.167" fill="#F39C12"/>
<path d="M699.732 259.661C704.154 234.647 704.433 202.966 679.889 188.183C678.717 187.442 677.637 189.301 678.805 190.039C702.501 204.371 701.798 234.978 697.656 259.088C697.592 259.36 697.635 259.646 697.777 259.886C697.919 260.126 698.149 260.301 698.418 260.375C698.687 260.449 698.974 260.416 699.219 260.283C699.464 260.149 699.648 259.926 699.731 259.66L699.732 259.661Z" fill="#3F3D56"/>
<path d="M604.836 233.964C589.429 254.646 567.974 226.954 555.287 216.804C572.21 215.904 599.243 212.416 604.502 233.681" fill="#F39C12"/>
<path d="M620.011 258.001C611.302 241.329 597.394 222.474 576.192 224.855C574.815 224.973 575.159 227.096 576.534 226.978C596.673 224.894 609.776 243.006 618.046 258.877C618.721 260.071 620.693 259.208 620.011 258.001Z" fill="#3F3D56"/>
<path d="M596 194.842H335C334.735 194.842 334.48 194.737 334.293 194.549C334.105 194.362 334 194.107 334 193.842C334 193.577 334.105 193.322 334.293 193.135C334.48 192.947 334.735 192.842 335 192.842H596C596.265 192.842 596.52 192.947 596.707 193.135C596.895 193.322 597 193.577 597 193.842C597 194.107 596.895 194.362 596.707 194.549C596.52 194.737 596.265 194.842 596 194.842Z" fill="#CACACA"/>
<path d="M469.186 26.9303L467.468 5.53865C467.305 5.08197 467.031 4.67338 466.669 4.35027C466.308 4.02715 465.871 3.79984 465.399 3.68913C464.927 3.57843 464.435 3.58788 463.968 3.7166C463.5 3.84532 463.073 4.08921 462.724 4.42595L441.773 24.0531C435.155 22.6503 428.351 22.3441 421.634 23.1466L421.105 2.05965C420.963 1.59161 420.705 1.16703 420.355 0.825486C420.005 0.483939 419.574 0.236506 419.103 0.106218C418.631 -0.0240708 418.135 -0.0329673 417.659 0.0803386C417.183 0.193645 416.744 0.425479 416.382 0.754258L399.478 19.4867C387.763 25.7694 378.368 35.6403 372.672 47.6519C366.976 59.6636 365.278 73.1841 367.827 86.2312C370.376 99.2784 377.038 111.166 386.836 120.15C396.634 129.135 409.053 134.744 422.271 136.156C435.49 137.567 448.813 134.707 460.287 127.994C471.762 121.281 480.783 111.068 486.03 98.8534C491.276 86.6387 492.472 73.0644 489.44 60.1208C486.409 47.1773 479.311 35.5453 469.186 26.9303H469.186Z" fill="#3F3D56"/>
<path d="M476.952 113.74C499.833 113.376 528.619 193.672 474.396 194.088C446.34 194.303 396.67 199.775 396.67 199.775C396.67 199.775 358.059 141.828 375.279 105.777L476.952 113.74Z" fill="#3F3D56"/>
<path d="M426.623 156.173V197.775H446.073L461.505 155.414" fill="#3F3D56"/>
<path d="M446.073 198.534H426.623C426.422 198.534 426.229 198.454 426.087 198.311C425.944 198.169 425.865 197.976 425.865 197.775V156.173C425.865 155.972 425.944 155.779 426.087 155.637C426.229 155.494 426.422 155.414 426.623 155.414C426.824 155.414 427.017 155.494 427.159 155.637C427.301 155.779 427.381 155.972 427.381 156.173V197.017H445.542L460.792 155.155C460.861 154.966 461.002 154.812 461.185 154.727C461.367 154.642 461.576 154.633 461.765 154.702C461.954 154.771 462.107 154.912 462.192 155.094C462.277 155.276 462.286 155.485 462.218 155.674L446.786 198.035C446.732 198.181 446.636 198.307 446.508 198.397C446.381 198.486 446.229 198.534 446.073 198.534V198.534Z" fill="white"/>
<path d="M477.05 200.534C485.845 200.534 492.975 198.157 492.975 195.226C492.975 192.294 485.845 189.917 477.05 189.917C468.256 189.917 461.126 192.294 461.126 195.226C461.126 198.157 468.256 200.534 477.05 200.534Z" fill="#3F3D56"/>
<path d="M469.088 190.676C468.926 190.676 468.768 190.624 468.637 190.527C468.507 190.431 468.411 190.295 468.363 190.14C468.28 189.868 460.224 162.853 479.309 154.717C479.4 154.677 479.499 154.656 479.599 154.655C479.698 154.654 479.797 154.672 479.89 154.709C479.983 154.746 480.067 154.801 480.139 154.871C480.21 154.941 480.267 155.024 480.306 155.116C480.345 155.208 480.366 155.306 480.367 155.406C480.368 155.506 480.349 155.605 480.311 155.698C480.274 155.79 480.219 155.874 480.149 155.945C480.079 156.017 479.995 156.073 479.903 156.112C462.061 163.718 469.733 189.436 469.813 189.695C469.872 189.887 469.852 190.095 469.758 190.272C469.664 190.45 469.503 190.583 469.311 190.642C469.239 190.665 469.164 190.676 469.088 190.676V190.676Z" fill="white"/>
<path d="M496.101 183.745C495.994 183.592 495.916 183.431 495.823 183.274C494.995 183.304 494.166 183.335 493.338 183.366L496.101 183.745Z" fill="#3F3D56"/>
<path d="M578.736 159.707C572.527 149.783 557.335 147.026 548.035 154.135C543.838 157.343 541.01 161.98 537.424 165.859C531.392 172.344 523.348 176.601 514.594 177.942C508.5 178.856 502.055 178.36 496.428 180.869C490.97 183.302 486.853 190.248 489.824 195.274C510.771 194.502 531.718 193.73 552.665 192.958C558.691 192.736 564.932 192.461 570.321 189.754C580.781 184.499 584.945 169.631 578.736 159.707Z" fill="#3F3D56"/>
<path d="M424.092 130.962C415.488 131.041 406.961 129.339 399.046 125.964C382.521 118.791 374.947 106.685 374.633 106.174C374.529 106.002 374.498 105.797 374.545 105.603C374.592 105.408 374.714 105.241 374.885 105.136C375.055 105.031 375.26 104.998 375.455 105.043C375.65 105.089 375.819 105.21 375.925 105.379C381.911 113.882 390.156 120.541 399.727 124.606C414.608 131.039 440.019 134.263 476.572 113.084C476.658 113.033 476.753 113 476.852 112.987C476.951 112.974 477.052 112.98 477.148 113.005C477.245 113.031 477.335 113.075 477.414 113.136C477.494 113.196 477.56 113.272 477.61 113.358C477.661 113.445 477.693 113.54 477.706 113.639C477.719 113.738 477.713 113.838 477.687 113.935C477.661 114.031 477.616 114.122 477.556 114.201C477.495 114.28 477.419 114.346 477.332 114.396C455.876 126.829 438.16 130.962 424.092 130.962Z" fill="white"/>
<path d="M427.381 92.4749C425.974 92.4734 424.625 91.9136 423.629 90.9185C422.634 89.9233 422.075 88.5741 422.073 87.1668C422.073 86.9657 422.153 86.7728 422.295 86.6306C422.437 86.4883 422.63 86.4084 422.831 86.4084C423.032 86.4084 423.225 86.4883 423.367 86.6306C423.51 86.7728 423.59 86.9657 423.59 87.1668C423.59 88.1724 423.989 89.1368 424.7 89.8478C425.411 90.5589 426.376 90.9583 427.381 90.9583C428.387 90.9583 429.351 90.5589 430.062 89.8478C430.773 89.1368 431.173 88.1724 431.173 87.1668C431.173 86.9657 431.253 86.7728 431.395 86.6306C431.537 86.4883 431.73 86.4084 431.931 86.4084C432.132 86.4084 432.325 86.4883 432.467 86.6306C432.609 86.7728 432.689 86.9657 432.689 87.1668C432.688 88.5741 432.128 89.9233 431.133 90.9185C430.138 91.9136 428.788 92.4734 427.381 92.4749Z" fill="white"/>
<path d="M420.177 195.354C420.016 195.354 419.859 195.303 419.73 195.208C419.6 195.113 419.504 194.979 419.455 194.826L407.322 156.782C407.291 156.687 407.28 156.587 407.288 156.488C407.296 156.388 407.323 156.291 407.369 156.203C407.415 156.114 407.477 156.035 407.554 155.97C407.63 155.906 407.718 155.857 407.813 155.827C407.908 155.797 408.008 155.785 408.108 155.794C408.207 155.802 408.304 155.83 408.393 155.876C408.481 155.922 408.56 155.985 408.624 156.062C408.688 156.138 408.737 156.226 408.767 156.322L420.9 194.365C420.936 194.479 420.944 194.599 420.925 194.717C420.906 194.835 420.859 194.946 420.789 195.043C420.719 195.139 420.626 195.217 420.52 195.272C420.414 195.326 420.296 195.354 420.177 195.354V195.354Z" fill="white"/>
<path d="M436.102 205.842C444.897 205.842 452.026 203.465 452.026 200.534C452.026 197.602 444.897 195.226 436.102 195.226C427.307 195.226 420.177 197.602 420.177 200.534C420.177 203.465 427.307 205.842 436.102 205.842Z" fill="#3F3D56"/>
<path d="M410.319 205.084C419.114 205.084 426.244 202.707 426.244 199.775C426.244 196.844 419.114 194.467 410.319 194.467C401.524 194.467 394.395 196.844 394.395 199.775C394.395 202.707 401.524 205.084 410.319 205.084Z" fill="#3F3D56"/>
<path d="M427.76 80.0213C431.111 80.0213 433.827 78.9766 433.827 77.688C433.827 76.3994 431.111 75.3547 427.76 75.3547C424.41 75.3547 421.694 76.3994 421.694 77.688C421.694 78.9766 424.41 80.0213 427.76 80.0213Z" fill="white"/>
<path d="M386.969 77.859C388.705 75.7808 390.877 74.109 393.329 72.9619C395.782 71.8147 398.457 71.2202 401.165 71.2202C403.873 71.2202 406.548 71.8147 409.001 72.9619C411.454 74.109 413.625 75.7808 415.361 77.859C418.302 75.0514 420.344 71.4347 421.23 67.4663C422.115 63.4979 421.804 59.3559 420.336 55.5643C418.867 51.7727 416.308 48.5017 412.98 46.1649C409.653 43.8281 405.707 42.5305 401.642 42.4362C397.577 42.3419 393.576 43.455 390.143 45.635C386.711 47.8149 384.002 50.9636 382.36 54.683C380.717 58.4024 380.214 62.5254 380.914 66.5307C381.615 70.5359 383.487 74.2434 386.295 77.1845C386.515 77.4145 386.739 77.6393 386.969 77.859Z" fill="white"/>
<path d="M442.477 77.859C444.213 75.7808 446.384 74.109 448.837 72.9619C451.289 71.8148 453.964 71.2202 456.672 71.2202C459.38 71.2202 462.055 71.8148 464.508 72.9619C466.961 74.109 469.132 75.7808 470.868 77.859C473.809 75.0514 475.851 71.4347 476.737 67.4663C477.622 63.4979 477.311 59.356 475.843 55.5644C474.374 51.7728 471.815 48.5018 468.487 46.165C465.16 43.8282 461.214 42.5305 457.149 42.4362C453.084 42.3419 449.083 43.455 445.65 45.635C442.218 47.8149 439.509 50.9636 437.867 54.683C436.224 58.4024 435.721 62.5254 436.421 66.5307C437.122 70.5359 438.994 74.2434 441.802 77.1845C442.022 77.4145 442.246 77.6393 442.477 77.859Z" fill="white"/>
<path d="M392.152 72.0601C396.058 72.0601 399.224 68.894 399.224 64.9883C399.224 61.0827 396.058 57.9165 392.152 57.9165C388.246 57.9165 385.08 61.0827 385.08 64.9883C385.08 68.894 388.246 72.0601 392.152 72.0601Z" fill="#3F3D56"/>
<path d="M447.657 72.0601C451.563 72.0601 454.729 68.894 454.729 64.9883C454.729 61.0827 451.563 57.9165 447.657 57.9165C443.752 57.9165 440.585 61.0827 440.585 64.9883C440.585 68.894 443.752 72.0601 447.657 72.0601Z" fill="#3F3D56"/>
<path d="M457.334 92.8244C460.757 92.8244 463.531 90.0499 463.531 86.6275C463.531 83.2051 460.757 80.4307 457.334 80.4307C453.912 80.4307 451.137 83.2051 451.137 86.6275C451.137 90.0499 453.912 92.8244 457.334 92.8244Z" fill="#FF6584"/>
<path d="M401.334 92.8244C404.757 92.8244 407.531 90.0499 407.531 86.6275C407.531 83.2051 404.757 80.4307 401.334 80.4307C397.912 80.4307 395.137 83.2051 395.137 86.6275C395.137 90.0499 397.912 92.8244 401.334 92.8244Z" fill="#FF6584"/>
</g>
<defs>
<clipPath id="clip0">
<rect width="785" height="260.842" fill="white"/>
</clipPath>
</defs>
</svg>
