<svg width="411" height="391" viewBox="0 0 411 391" fill="none" xmlns="http://www.w3.org/2000/svg">
<path d="M223.872 371.008C327.22 371.008 411 361.662 411 350.132C411 338.603 327.22 329.257 223.872 329.257C120.524 329.257 36.7434 338.603 36.7434 350.132C36.7434 361.662 120.524 371.008 223.872 371.008Z" fill="#3F3D56"/>
<path d="M316.676 327.033L319.904 336.961C319.904 336.961 335.447 352.994 329.825 357.34C324.204 361.685 311.591 338.777 311.591 338.777L309.267 327.569L316.676 327.033Z" fill="#FFB8B8"/>
<path d="M286.858 250.19L291.562 248.624C291.562 248.624 298.88 250.712 299.925 258.018C300.971 265.325 308.811 302.379 308.811 302.379C308.811 302.379 311.947 303.945 309.857 306.554C307.766 309.164 320.311 332.649 320.311 332.649L310.379 337.346C310.379 337.346 290.517 316.47 290.517 314.383C290.517 312.295 291.039 310.208 291.039 308.12C291.039 306.032 290.517 306.032 291.039 304.467C291.388 303.102 291.564 301.7 291.562 300.292L287.903 291.941L286.858 250.19Z" fill="#F39C12"/>
<path d="M47.2618 285.99C73.3638 285.99 94.5236 242.882 94.5236 189.707C94.5236 136.531 73.3638 93.4233 47.2618 93.4233C21.1598 93.4233 0 136.531 0 189.707C0 242.882 21.1598 285.99 47.2618 285.99Z" fill="#F39C12"/>
<path d="M46.828 190.705C49.1856 148.794 53.9356 120.484 53.9833 120.203L52.9527 120.029C52.905 120.31 48.1465 148.665 45.7852 190.631C43.6061 229.362 43.0803 287.946 52.9525 347.087L53.9836 346.915C44.1282 287.875 44.6527 229.38 46.828 190.705Z" fill="#3F3D56"/>
<path d="M89.5031 170.18L46.771 193.016L47.2643 193.937L89.9965 171.101L89.5031 170.18Z" fill="#3F3D56"/>
<path d="M2.15301 181.626L1.65991 182.546L44.3982 205.371L44.8913 204.45L2.15301 181.626Z" fill="#3F3D56"/>
<path d="M159.198 263.512C194.916 263.512 223.872 204.523 223.872 131.756C223.872 58.9892 194.916 0 159.198 0C123.479 0 94.5237 58.9892 94.5237 131.756C94.5237 204.523 123.479 263.512 159.198 263.512Z" fill="#E6E6E6"/>
<path d="M158.412 133.106C161.639 75.744 168.14 36.9983 168.205 36.6135L167.175 36.4392C167.11 36.8243 160.6 75.6153 157.369 133.031C154.387 186.023 153.668 266.175 167.175 347.087L168.206 346.915C154.716 266.104 155.434 186.041 158.412 133.106Z" fill="#3F3D56"/>
<path d="M217.092 105.205L158.617 136.455L159.11 137.375L217.586 106.126L217.092 105.205Z" fill="#3F3D56"/>
<path d="M97.3791 120.868L96.886 121.788L155.37 153.021L155.863 152.101L97.3791 120.868Z" fill="#3F3D56"/>
<path d="M105.321 314.854C118.666 314.854 129.485 292.814 129.485 265.626C129.485 238.439 118.666 216.399 105.321 216.399C91.9753 216.399 81.1567 238.439 81.1567 265.626C81.1567 292.814 91.9753 314.854 105.321 314.854Z" fill="#E6E6E6"/>
<path d="M105.299 267.747L105.442 268.014L127.29 256.338L126.797 255.418L105.345 266.882C106.532 245.067 108.96 230.422 109.009 230.133L107.978 229.959C107.925 230.274 105.04 247.665 104.016 272.83L82.3796 261.267L81.8865 262.187L103.734 273.863L103.995 273.376C103.176 294.146 103.635 320.117 107.978 346.133L109.009 345.962C104.274 317.596 104.17 289.283 105.299 267.747Z" fill="#3F3D56"/>
<path d="M293.254 200.649C284.852 186.351 268.229 185.685 268.229 185.685C268.229 185.685 252.031 183.599 241.64 205.374C231.955 225.67 218.588 245.267 239.488 250.018L243.263 238.185L245.601 250.899C248.577 251.115 251.562 251.166 254.543 251.053C276.926 250.325 298.241 251.266 297.555 243.177C296.643 232.425 301.338 214.406 293.254 200.649Z" fill="#2F2E41"/>
<path d="M234.689 315.17C234.454 316.665 234.114 318.141 233.67 319.587C233.17 321.003 232.399 322.311 231.942 323.741C230.485 328.3 232.504 333.382 235.73 336.9C238.518 339.934 242.13 342.094 246.125 343.116C249.034 343.853 252.06 343.959 255.058 344.062C263.361 344.345 271.878 344.599 279.745 341.912C282.232 341.041 284.633 339.943 286.918 338.63C287.64 338.283 288.276 337.779 288.779 337.155C289.379 336.294 289.456 335.178 289.45 334.127C289.433 330.582 288.719 327.056 288.888 323.515C288.982 321.554 289.347 319.594 289.167 317.639C288.926 315.426 288.006 313.342 286.534 311.671C285.062 309.999 283.108 308.823 280.941 308.301C278.709 307.819 276.394 308.082 274.122 308.302C268.224 308.872 262.301 309.139 256.376 309.101C250.322 309.062 244.305 308.131 238.281 308.034C236.5 308.005 236.536 308.558 235.968 310.295C235.446 311.893 235.019 313.521 234.689 315.17V315.17Z" fill="#2F2E41"/>
<path d="M211.015 312.289C209.388 311.877 207.71 311.698 206.033 311.756C204.269 311.867 202.548 312.348 200.983 313.167C199.418 313.987 198.043 315.126 196.948 316.512C195.865 317.918 195.086 319.534 194.662 321.258C194.238 322.981 194.178 324.773 194.486 326.521C194.892 328.413 195.557 330.242 196.461 331.954C197.782 334.655 199.367 337.35 201.814 339.08C203.286 340.031 204.874 340.792 206.538 341.345L219.422 346.233C221.318 346.953 223.214 347.672 225.128 348.339C234.74 351.685 244.768 353.693 254.929 354.305C258.023 354.491 261.163 354.542 264.182 353.833C264.919 353.735 265.595 353.368 266.077 352.802C266.322 352.37 266.467 351.889 266.5 351.394L267.293 345.804C267.47 345.025 267.447 344.214 267.226 343.447C266.862 342.508 265.952 341.917 265.084 341.415C256.613 336.515 246.722 333.812 239.592 327.087C237.914 325.504 236.509 322.994 234.47 321.919C232.157 320.7 229.433 320.004 227.043 318.88C221.817 316.423 216.679 313.6 211.015 312.289Z" fill="#2F2E41"/>
<path opacity="0.1" d="M223.879 319.825C228.433 321.262 247.661 331.219 250.957 334.695C250.515 334.856 235.527 326.396 235.077 326.26C230.989 325.025 226.878 323.781 222.995 321.973C222.214 321.609 217.921 319.899 218.116 318.907C218.335 317.787 223.071 319.57 223.879 319.825Z" fill="black"/>
<path d="M280.696 357.204C280.955 357.223 281.212 357.147 281.418 356.99C281.509 356.872 281.576 356.738 281.615 356.594C281.653 356.451 281.663 356.301 281.644 356.153L281.623 348.538C279.448 347.495 277.016 347.16 274.628 346.839L263.489 345.339C263.745 345.374 261.747 350.171 262.054 350.812C262.593 351.941 266.719 352.941 267.883 353.474C271.931 355.327 276.137 357.364 280.696 357.204Z" fill="#FFB8B8"/>
<path d="M245.746 348.512C243.643 348.849 241.296 349.147 239.934 350.796C238.206 352.887 238.942 356.004 239.766 358.594C239.888 359.118 240.133 359.604 240.482 360.014C241.044 360.572 241.906 360.654 242.694 360.704C244.613 360.827 246.654 360.922 248.33 359.975C249.089 359.469 249.82 358.922 250.519 358.336C251.753 357.509 253.112 356.883 254.544 356.483C257.172 355.65 259.879 355.088 262.623 354.806C263.704 354.757 264.774 354.567 265.805 354.241C266.323 354.073 266.794 353.787 267.183 353.407C267.571 353.027 267.867 352.562 268.047 352.05C268.435 350.666 267.636 349.255 266.87 348.041C265.916 346.529 264.905 344.937 263.483 343.824C261.407 342.201 260.38 343.447 258.289 344.486C254.336 346.452 250.107 347.809 245.746 348.512Z" fill="#FFB8B8"/>
<path d="M240.25 350.42L226.895 346.444C225.294 345.883 223.62 345.556 221.925 345.475C220.232 345.476 218.46 346.035 217.361 347.333C216.326 348.557 216.029 350.23 215.771 351.817L215.219 355.212C214.851 356.924 214.746 358.682 214.91 360.425C215.162 362.154 216.039 363.882 217.563 364.719C219.411 365.735 221.676 365.239 223.738 364.814C227.903 363.957 232.141 363.499 236.394 363.447C237.992 363.428 239.669 363.448 241.081 362.694C242.761 361.798 243.765 359.903 243.938 357.997C244.2 355.098 243.241 351.31 240.25 350.42Z" fill="#2F2E41"/>
<path d="M285.946 346.955C287.677 346.65 289.205 345.659 290.864 345.074C293.199 344.251 295.729 344.251 298.203 344.26C299.111 344.263 300.078 344.284 300.834 344.791C301.924 345.521 302.203 346.983 302.389 348.289L303.507 356.163C303.717 357.644 303.926 359.165 303.598 360.624C303.27 362.083 302.282 363.49 300.845 363.867C299.098 364.324 297.386 363.2 295.737 362.462C291.616 360.618 286.826 361.089 282.529 359.711C281.731 359.455 280.877 359.064 280.552 358.287C280.405 357.849 280.352 357.386 280.398 356.926C280.471 354.395 279.941 350.939 280.698 348.52C281.379 346.344 284.013 346.955 285.946 346.955Z" fill="#2F2E41"/>
<path d="M314.207 309.12C316.875 308.446 319.642 308.255 322.377 308.557C324.561 308.8 326.811 309.412 328.406 310.934C330.346 312.787 330.97 315.653 331.022 318.346C331.11 323.702 329.345 328.925 326.025 333.133C325.216 334.194 324.253 335.127 323.168 335.903C321.999 336.639 320.752 337.244 319.451 337.707L290.595 349.169C283.004 352.184 275.386 355.208 267.468 357.196C267.252 357.301 267.016 357.362 266.775 357.374C266.535 357.386 266.294 357.35 266.068 357.267C265.841 357.184 265.634 357.057 265.458 356.893C265.282 356.729 265.141 356.531 265.043 356.311C262.513 352.671 260.392 348.764 258.719 344.66C258.643 344.529 258.597 344.383 258.583 344.233C258.569 344.082 258.587 343.93 258.637 343.788C258.743 343.629 258.89 343.503 259.063 343.422L279.473 331.613C280.971 330.826 282.366 329.857 283.627 328.73C284.51 327.868 285.232 326.855 285.76 325.74C286.183 324.85 286.222 322.75 286.762 322.092C287.292 321.448 289.101 321.397 289.937 321.144C291.117 320.78 292.271 320.34 293.394 319.828C297.959 317.771 302.025 314.782 306.401 312.374C308.854 310.961 311.477 309.868 314.207 309.12V309.12Z" fill="#2F2E41"/>
<path opacity="0.1" d="M302.637 317.939C299.131 320.591 294.59 323.029 291.115 325.751C289.929 326.68 270.157 337.875 269.878 339.362C273.12 339.912 293.773 325.361 296.728 323.909C299.683 322.457 302.302 320.41 304.898 318.378C305.559 317.86 308.363 316.303 306.464 315.724C305.394 315.398 303.427 317.409 302.637 317.939Z" fill="black"/>
<path d="M267.518 236.621C278.487 236.621 287.38 227.742 287.38 216.789C287.38 205.836 278.487 196.957 267.518 196.957C256.548 196.957 247.655 205.836 247.655 216.789C247.655 227.742 256.548 236.621 267.518 236.621Z" fill="#FFB8B8"/>
<path d="M275.881 233.489C275.881 233.489 272.745 241.318 278.494 244.449C284.244 247.58 260.722 272.631 260.722 272.631L250.268 242.362C250.268 242.362 259.154 239.23 257.586 230.88L275.881 233.489Z" fill="#FFB8B8"/>
<path d="M262.813 254.887L275.472 240.934L292.607 249.668L289.994 311.251L285.812 315.948C285.812 315.948 268.04 331.605 240.86 318.558C240.86 318.558 231.451 310.729 231.974 298.726C232.496 286.722 230.928 285.157 230.928 285.157L230.406 242.883L256.212 237.827L262.813 254.887Z" fill="#F39C12"/>
<path d="M204.768 321.292L201.541 331.22C201.541 331.22 185.998 347.253 191.619 351.599C197.241 355.945 209.854 333.036 209.854 333.036L212.178 321.828L204.768 321.292Z" fill="#FFB8B8"/>
<path d="M234.587 244.449L229.883 242.883C229.883 242.883 222.565 244.971 221.52 252.277C220.474 259.584 212.634 296.638 212.634 296.638C212.634 296.638 209.497 298.204 211.588 300.813C213.679 303.423 201.134 326.908 201.134 326.908L211.065 331.605C211.065 331.605 230.928 310.729 230.928 308.642C230.928 306.554 230.405 304.467 230.405 302.379C230.405 300.292 230.928 300.292 230.405 298.726C230.057 297.362 229.881 295.959 229.883 294.551L233.542 286.2L234.587 244.449Z" fill="#F39C12"/>
<path d="M289.539 199.27L273.117 190.608L250.438 194.151L245.746 215.022L257.426 214.57L260.689 206.902V214.443L266.078 214.234L269.207 202.027L271.162 215.022L290.321 214.628L289.539 199.27Z" fill="#2F2E41"/>
<path d="M173.122 333.531V363.634H81.0322C81.0327 355.65 84.2093 347.994 89.8633 342.348C95.5174 336.703 103.186 333.531 111.182 333.531C119.817 330.843 129.801 329.987 140.631 330.269C150.85 330.53 161.821 331.809 173.122 333.531Z" fill="#FF6584"/>
<path d="M159.967 357.067H203.272C203.999 357.067 204.696 357.355 205.21 357.868C205.724 358.382 206.013 359.078 206.013 359.803C206.013 360.529 205.724 361.225 205.21 361.738C204.696 362.252 203.999 362.54 203.272 362.54H159.967V357.067V357.067Z" fill="#3F3D56"/>
<path d="M167.467 307.769L179.075 293.721C179.342 293.164 179.773 292.701 180.31 292.394C180.848 292.088 181.466 291.952 182.082 292.005C182.699 292.057 183.285 292.296 183.762 292.69C184.239 293.083 184.585 293.612 184.754 294.207L189.331 310.343L167.467 307.769Z" fill="#3F3D56"/>
<path d="M153.389 314.924L157.774 297.246C157.774 296.629 157.963 296.025 158.315 295.517C158.666 295.009 159.165 294.619 159.744 294.401C160.323 294.182 160.954 294.145 161.555 294.294C162.156 294.442 162.697 294.77 163.106 295.234L174.219 307.809L153.389 314.924Z" fill="#FF6584"/>
<path d="M81.0317 363.635H89.8023V382.243C89.8023 383.393 89.5755 384.532 89.1347 385.594C88.6939 386.657 88.0479 387.622 87.2335 388.435C86.419 389.248 85.4522 389.893 84.3881 390.333C83.324 390.773 82.1835 391 81.0317 391V363.635V363.635Z" fill="#FF6584"/>
<path d="M158.323 358.161H201.627C202.354 358.161 203.051 358.45 203.565 358.963C204.079 359.476 204.368 360.172 204.368 360.898C204.368 361.624 204.079 362.32 203.565 362.833C203.051 363.346 202.354 363.635 201.627 363.635H158.323V358.161Z" fill="#FF6584"/>
<path opacity="0.2" d="M173.122 333.531V363.467C168.673 363.939 164.175 363.398 159.965 361.885C155.756 360.372 151.944 357.926 148.818 354.731C145.691 351.536 143.329 347.675 141.912 343.438C140.494 339.202 140.056 334.699 140.631 330.269C150.85 330.53 161.821 331.809 173.122 333.531Z" fill="black"/>
<path d="M173.123 363.635C189.471 363.635 202.724 350.402 202.724 334.08C202.724 317.757 189.471 304.525 173.123 304.525C156.775 304.525 143.522 317.757 143.522 334.08C143.522 350.402 156.775 363.635 173.123 363.635Z" fill="#FF6584"/>
<path d="M201.627 343.931C203.444 343.931 204.916 340.501 204.916 336.269C204.916 332.037 203.444 328.607 201.627 328.607C199.811 328.607 198.338 332.037 198.338 336.269C198.338 340.501 199.811 343.931 201.627 343.931Z" fill="#3F3D56"/>
<path d="M193.679 330.249C194.133 330.249 194.501 329.391 194.501 328.333C194.501 327.275 194.133 326.417 193.679 326.417C193.225 326.417 192.857 327.275 192.857 328.333C192.857 329.391 193.225 330.249 193.679 330.249Z" fill="#3F3D56"/>
<path d="M199.709 326.417C200.163 326.417 200.531 325.56 200.531 324.502C200.531 323.444 200.163 322.586 199.709 322.586C199.255 322.586 198.886 323.444 198.886 324.502C198.886 325.56 199.255 326.417 199.709 326.417Z" fill="#3F3D56"/>
<path d="M170.639 304.196C170.639 304.196 168.994 301.339 168.994 299.596Z" fill="#3F3D56"/>
<path d="M171.363 302.348C171.363 302.348 172.26 299.176 173.508 297.958Z" fill="#3F3D56"/>
</svg>
